<?xml version="1.0" encoding="UTF-8" standalone="no"?>
<!DOCTYPE svg PUBLIC "-//W3C//DTD SVG 1.1//EN"
 "http://www.w3.org/Graphics/SVG/1.1/DTD/svg11.dtd">
<!-- Generated by graphviz version 2.38.0 (20140413.2041)
 -->
<!-- Title: G Pages: 1 -->
<svg width="1863pt" height="826pt"
 viewBox="0.00 0.00 1863.00 826.00" xmlns="http://www.w3.org/2000/svg" xmlns:xlink="http://www.w3.org/1999/xlink">
<g id="graph0" class="graph" transform="scale(1 1) rotate(0) translate(4 822)">
<title>G</title>
<polygon fill="white" stroke="none" points="-4,4 -4,-822 1859,-822 1859,4 -4,4"/>
<g id="clust1" class="cluster"><title>cluster0</title>
<polygon fill="lightgray" stroke="lightgray" points="8,-8 8,-810 565,-810 565,-8 8,-8"/>
<text text-anchor="middle" x="286.5" y="-794.8" font-family="Times New Roman,serif" font-size="14.00">Sync for each device (lastReq and local dayModified flags specific to device)</text>
</g>
<g id="clust2" class="cluster"><title>cluster1</title>
<polygon fill="lightgray" stroke="lightgray" points="573,-589 573,-787 899,-787 899,-589 573,-589"/>
</g>
<g id="clust4" class="cluster"><title>cluster3</title>
<polygon fill="lightgray" stroke="lightgray" points="1333,-241 1333,-810 1847,-810 1847,-241 1333,-241"/>
<text text-anchor="middle" x="1590" y="-794.8" font-family="Times New Roman,serif" font-size="14.00">Old device computer uploads data out of order (device was moved)</text>
</g>
<g id="clust3" class="cluster"><title>cluster2</title>
<polygon fill="lightgray" stroke="lightgray" points="907,-589 907,-810 1325,-810 1325,-589 907,-589"/>
<text text-anchor="middle" x="1116" y="-794.8" font-family="Times New Roman,serif" font-size="14.00">Multi&#45;Device Sync Problem</text>
</g>
<!-- start -->
<g id="node1" class="node"><title>start</title>
<path fill="orange" stroke="black" d="M461.5,-779C461.5,-779 410.5,-779 410.5,-779 404.5,-779 398.5,-773 398.5,-767 398.5,-767 398.5,-755 398.5,-755 398.5,-749 404.5,-743 410.5,-743 410.5,-743 461.5,-743 461.5,-743 467.5,-743 473.5,-749 473.5,-755 473.5,-755 473.5,-767 473.5,-767 473.5,-773 467.5,-779 461.5,-779"/>
<text text-anchor="middle" x="436" y="-757.3" font-family="Times New Roman,serif" font-size="14.00">Start Sync</text>
</g>
<!-- reqFive -->
<g id="node4" class="node"><title>reqFive</title>
<polygon fill="white" stroke="black" points="529,-706 343,-706 343,-670 529,-670 529,-706"/>
<text text-anchor="middle" x="436" y="-684.3" font-family="Times New Roman,serif" font-size="14.00">Request 5 days from $lastReq</text>
</g>
<!-- start&#45;&gt;reqFive -->
<g id="edge1" class="edge"><title>start&#45;&gt;reqFive</title>
<path fill="none" stroke="black" d="M436,-742.813C436,-734.789 436,-725.047 436,-716.069"/>
<polygon fill="black" stroke="black" points="439.5,-716.029 436,-706.029 432.5,-716.029 439.5,-716.029"/>
</g>
<!-- end -->
<g id="node2" class="node"><title>end</title>
<path fill="orange" stroke="black" d="M306.5,-372C306.5,-372 259.5,-372 259.5,-372 253.5,-372 247.5,-366 247.5,-360 247.5,-360 247.5,-348 247.5,-348 247.5,-342 253.5,-336 259.5,-336 259.5,-336 306.5,-336 306.5,-336 312.5,-336 318.5,-342 318.5,-348 318.5,-348 318.5,-360 318.5,-360 318.5,-366 312.5,-372 306.5,-372"/>
<text text-anchor="middle" x="283" y="-350.3" font-family="Times New Roman,serif" font-size="14.00">End Sync</text>
</g>
<!-- abort -->
<g id="node3" class="node"><title>abort</title>
<path fill="red" stroke="black" d="M84,-52C84,-52 54,-52 54,-52 48,-52 42,-46 42,-40 42,-40 42,-28 42,-28 42,-22 48,-16 54,-16 54,-16 84,-16 84,-16 90,-16 96,-22 96,-28 96,-28 96,-40 96,-40 96,-46 90,-52 84,-52"/>
<text text-anchor="middle" x="69" y="-30.3" font-family="Times New Roman,serif" font-size="14.00">Abort</text>
</g>
<!-- dlsuccess -->
<g id="node12" class="node"><title>dlsuccess</title>
<polygon fill="white" stroke="black" points="352,-633 220.621,-615 352,-597 483.379,-615 352,-633"/>
<text text-anchor="middle" x="352" y="-611.3" font-family="Times New Roman,serif" font-size="14.00">Successful download?</text>
</g>
<!-- reqFive&#45;&gt;dlsuccess -->
<g id="edge2" class="edge"><title>reqFive&#45;&gt;dlsuccess</title>
<path fill="none" stroke="black" d="M415.666,-669.813C404.036,-659.982 389.353,-647.572 377.019,-637.147"/>
<polygon fill="black" stroke="black" points="379.206,-634.413 369.309,-630.631 374.687,-639.759 379.206,-634.413"/>
</g>
<!-- anythingRecieved -->
<g id="node5" class="node"><title>anythingRecieved</title>
<polygon fill="white" stroke="black" points="352,-546 233.357,-528 352,-510 470.643,-528 352,-546"/>
<text text-anchor="middle" x="352" y="-524.3" font-family="Times New Roman,serif" font-size="14.00">Any items recieved?</text>
</g>
<!-- mergeAndSave -->
<g id="node7" class="node"><title>mergeAndSave</title>
<polygon fill="white" stroke="black" points="498.5,-459 367.5,-459 367.5,-423 498.5,-423 498.5,-459"/>
<text text-anchor="middle" x="433" y="-437.3" font-family="Times New Roman,serif" font-size="14.00">Merge and save data</text>
</g>
<!-- anythingRecieved&#45;&gt;mergeAndSave -->
<g id="edge5" class="edge"><title>anythingRecieved&#45;&gt;mergeAndSave</title>
<path fill="none" stroke="black" d="M366.481,-511.804C378.494,-499.198 395.802,-481.035 409.752,-466.396"/>
<polygon fill="black" stroke="black" points="412.33,-468.764 416.695,-459.11 407.263,-463.935 412.33,-468.764"/>
<text text-anchor="middle" x="411.5" y="-480.8" font-family="Times New Roman,serif" font-size="14.00"> yes </text>
</g>
<!-- anyDaysLocallyModified -->
<g id="node8" class="node"><title>anyDaysLocallyModified</title>
<polygon fill="white" stroke="black" points="193,-459 37.8247,-441 193,-423 348.175,-441 193,-459"/>
<text text-anchor="middle" x="193" y="-437.3" font-family="Times New Roman,serif" font-size="14.00">Any days locally modified?</text>
</g>
<!-- anythingRecieved&#45;&gt;anyDaysLocallyModified -->
<g id="edge6" class="edge"><title>anythingRecieved&#45;&gt;anyDaysLocallyModified</title>
<path fill="none" stroke="black" d="M327.156,-513.719C300.561,-499.501 258.148,-476.828 228.139,-460.785"/>
<polygon fill="black" stroke="black" points="229.725,-457.664 219.256,-456.036 226.424,-463.837 229.725,-457.664"/>
<text text-anchor="middle" x="294" y="-480.8" font-family="Times New Roman,serif" font-size="14.00"> no </text>
</g>
<!-- setLastToLastItem -->
<g id="node6" class="node"><title>setLastToLastItem</title>
<polygon fill="white" stroke="black" points="548.5,-285 369.5,-285 369.5,-249 548.5,-249 548.5,-285"/>
<text text-anchor="middle" x="459" y="-263.3" font-family="Times New Roman,serif" font-size="14.00">Set $lastReq to last item date</text>
</g>
<!-- setLastToLastItem&#45;&gt;reqFive -->
<g id="edge9" class="edge"><title>setLastToLastItem&#45;&gt;reqFive</title>
<path fill="none" stroke="black" d="M500.418,-285.083C526.782,-299.01 556,-321.54 556,-353 556,-616 556,-616 556,-616 556,-639.193 539.191,-654.971 518.155,-665.635"/>
<polygon fill="black" stroke="black" points="516.53,-662.53 508.917,-669.899 519.464,-668.886 516.53,-662.53"/>
</g>
<!-- markMergedModified -->
<g id="node14" class="node"><title>markMergedModified</title>
<polygon fill="white" stroke="black" points="537,-372 337,-372 337,-336 537,-336 537,-372"/>
<text text-anchor="middle" x="437" y="-350.3" font-family="Times New Roman,serif" font-size="14.00">Mark merged as locally modified</text>
</g>
<!-- mergeAndSave&#45;&gt;markMergedModified -->
<g id="edge7" class="edge"><title>mergeAndSave&#45;&gt;markMergedModified</title>
<path fill="none" stroke="black" d="M433.809,-422.799C434.357,-411.163 435.092,-395.548 435.718,-382.237"/>
<polygon fill="black" stroke="black" points="439.218,-382.329 436.192,-372.175 432.225,-382 439.218,-382.329"/>
</g>
<!-- anyDaysLocallyModified&#45;&gt;end -->
<g id="edge16" class="edge"><title>anyDaysLocallyModified&#45;&gt;end</title>
<path fill="none" stroke="black" d="M209.09,-424.804C222.56,-412.082 242.023,-393.701 257.595,-378.994"/>
<polygon fill="black" stroke="black" points="260.017,-381.521 264.884,-372.11 255.21,-376.432 260.017,-381.521"/>
<text text-anchor="middle" x="251.5" y="-393.8" font-family="Times New Roman,serif" font-size="14.00">no</text>
</g>
<!-- unmarkFive -->
<g id="node9" class="node"><title>unmarkFive</title>
<polygon fill="white" stroke="black" points="229.5,-372 56.5,-372 56.5,-336 229.5,-336 229.5,-372"/>
<text text-anchor="middle" x="143" y="-350.3" font-family="Times New Roman,serif" font-size="14.00">Unflag 5 as locally modified</text>
</g>
<!-- anyDaysLocallyModified&#45;&gt;unmarkFive -->
<g id="edge10" class="edge"><title>anyDaysLocallyModified&#45;&gt;unmarkFive</title>
<path fill="none" stroke="black" d="M183.595,-424.012C176.448,-411.862 166.469,-394.898 158.194,-380.83"/>
<polygon fill="black" stroke="black" points="161.136,-378.928 153.049,-372.083 155.102,-382.477 161.136,-378.928"/>
<text text-anchor="middle" x="184.5" y="-393.8" font-family="Times New Roman,serif" font-size="14.00"> yes </text>
</g>
<!-- uploadFive -->
<g id="node10" class="node"><title>uploadFive</title>
<polygon fill="white" stroke="black" points="220,-285 104,-285 104,-249 220,-249 220,-285"/>
<text text-anchor="middle" x="162" y="-263.3" font-family="Times New Roman,serif" font-size="14.00">Upload those five</text>
</g>
<!-- unmarkFive&#45;&gt;uploadFive -->
<g id="edge11" class="edge"><title>unmarkFive&#45;&gt;uploadFive</title>
<path fill="none" stroke="black" d="M146.845,-335.799C149.446,-324.163 152.936,-308.548 155.912,-295.237"/>
<polygon fill="black" stroke="black" points="159.395,-295.698 158.161,-285.175 152.564,-294.171 159.395,-295.698"/>
</g>
<!-- success -->
<g id="node11" class="node"><title>success</title>
<polygon fill="white" stroke="black" points="168,-212 53.2106,-194 168,-176 282.789,-194 168,-212"/>
<text text-anchor="middle" x="168" y="-190.3" font-family="Times New Roman,serif" font-size="14.00">Successful upload?</text>
</g>
<!-- uploadFive&#45;&gt;success -->
<g id="edge12" class="edge"><title>uploadFive&#45;&gt;success</title>
<path fill="none" stroke="black" d="M163.452,-248.813C164.13,-240.789 164.954,-231.047 165.712,-222.069"/>
<polygon fill="black" stroke="black" points="169.206,-222.288 166.561,-212.029 162.231,-221.699 169.206,-222.288"/>
</g>
<!-- success&#45;&gt;anyDaysLocallyModified -->
<g id="edge13" class="edge"><title>success&#45;&gt;anyDaysLocallyModified</title>
<path fill="none" stroke="black" d="M140.42,-207.692C125.517,-215.616 107.636,-226.979 95,-241 69.4517,-269.349 74.7164,-284.199 57,-318 52.7515,-326.106 49.2956,-327.141 47,-336 42.9865,-351.488 38.4001,-358.508 47,-372 64.8333,-399.979 97.5015,-416.63 127.421,-426.443"/>
<polygon fill="black" stroke="black" points="126.429,-429.8 137.016,-429.395 128.487,-423.109 126.429,-429.8"/>
<text text-anchor="middle" x="77.5" y="-306.8" font-family="Times New Roman,serif" font-size="14.00"> yes </text>
</g>
<!-- reflagFive -->
<g id="node13" class="node"><title>reflagFive</title>
<polygon fill="white" stroke="black" points="238.5,-125 59.5,-125 59.5,-89 238.5,-89 238.5,-125"/>
<text text-anchor="middle" x="149" y="-103.3" font-family="Times New Roman,serif" font-size="14.00">Reflag those five as modified</text>
</g>
<!-- success&#45;&gt;reflagFive -->
<g id="edge14" class="edge"><title>success&#45;&gt;reflagFive</title>
<path fill="none" stroke="black" d="M164.246,-176.207C161.609,-164.409 158.026,-148.378 154.996,-134.822"/>
<polygon fill="black" stroke="black" points="158.408,-134.045 152.811,-125.049 151.577,-135.572 158.408,-134.045"/>
<text text-anchor="middle" x="171" y="-146.8" font-family="Times New Roman,serif" font-size="14.00"> no </text>
</g>
<!-- dlsuccess&#45;&gt;abort -->
<g id="edge4" class="edge"><title>dlsuccess&#45;&gt;abort</title>
<path fill="none" stroke="black" d="M264.42,-608.971C165.163,-600.811 17,-580.077 17,-529 17,-529 17,-529 17,-396.5 17,-367.696 34,-296.804 34,-268 34,-268 34,-268 34,-106 34,-89.8094 41.4126,-73.4837 49.4152,-60.5764"/>
<polygon fill="black" stroke="black" points="52.3424,-62.4952 54.9658,-52.2303 46.5137,-58.6188 52.3424,-62.4952"/>
<text text-anchor="middle" x="42" y="-306.8" font-family="Times New Roman,serif" font-size="14.00">no &#160;</text>
</g>
<!-- dlsuccess&#45;&gt;anythingRecieved -->
<g id="edge3" class="edge"><title>dlsuccess&#45;&gt;anythingRecieved</title>
<path fill="none" stroke="black" d="M352,-596.799C352,-585.163 352,-569.548 352,-556.237"/>
<polygon fill="black" stroke="black" points="355.5,-556.175 352,-546.175 348.5,-556.175 355.5,-556.175"/>
<text text-anchor="middle" x="365.5" y="-567.8" font-family="Times New Roman,serif" font-size="14.00"> yes </text>
</g>
<!-- reflagFive&#45;&gt;abort -->
<g id="edge15" class="edge"><title>reflagFive&#45;&gt;abort</title>
<path fill="none" stroke="black" d="M129.634,-88.8129C119.513,-79.8302 106.964,-68.6933 95.9134,-58.8856"/>
<polygon fill="black" stroke="black" points="97.99,-56.049 88.1874,-52.0288 93.3434,-61.2845 97.99,-56.049"/>
</g>
<!-- markMergedModified&#45;&gt;setLastToLastItem -->
<g id="edge8" class="edge"><title>markMergedModified&#45;&gt;setLastToLastItem</title>
<path fill="none" stroke="black" d="M441.452,-335.799C444.464,-324.163 448.505,-308.548 451.95,-295.237"/>
<polygon fill="black" stroke="black" points="455.437,-295.733 454.555,-285.175 448.661,-293.979 455.437,-295.733"/>
</g>
<!-- dataFromDevice -->
<g id="node15" class="node"><title>dataFromDevice</title>
<polygon fill="orange" stroke="black" points="891.158,-779 644.336,-779 580.842,-743 827.664,-743 891.158,-779"/>
<text text-anchor="middle" x="736" y="-757.3" font-family="Times New Roman,serif" font-size="14.00">Data recieved from device</text>
</g>
<!-- saveToDb -->
<g id="node16" class="node"><title>saveToDb</title>
<polygon fill="white" stroke="black" points="789.5,-706 682.5,-706 682.5,-670 789.5,-670 789.5,-706"/>
<text text-anchor="middle" x="736" y="-684.3" font-family="Times New Roman,serif" font-size="14.00">Save to local db</text>
</g>
<!-- dataFromDevice&#45;&gt;saveToDb -->
<g id="edge17" class="edge"><title>dataFromDevice&#45;&gt;saveToDb</title>
<path fill="none" stroke="black" d="M736,-742.813C736,-734.789 736,-725.047 736,-716.069"/>
<polygon fill="black" stroke="black" points="739.5,-716.029 736,-706.029 732.5,-716.029 739.5,-716.029"/>
</g>
<!-- markDayAsLocallyModified -->
<g id="node17" class="node"><title>markDayAsLocallyModified</title>
<polygon fill="white" stroke="black" points="822.5,-633 649.5,-633 649.5,-597 822.5,-597 822.5,-633"/>
<text text-anchor="middle" x="736" y="-611.3" font-family="Times New Roman,serif" font-size="14.00">Flag day as locally modified</text>
</g>
<!-- saveToDb&#45;&gt;markDayAsLocallyModified -->
<g id="edge18" class="edge"><title>saveToDb&#45;&gt;markDayAsLocallyModified</title>
<path fill="none" stroke="black" d="M736,-669.813C736,-661.789 736,-652.047 736,-643.069"/>
<polygon fill="black" stroke="black" points="739.5,-643.029 736,-633.029 732.5,-643.029 739.5,-643.029"/>
</g>
<!-- computerSyncsAllRemoteDeviceOneData -->
<g id="node18" class="node"><title>computerSyncsAllRemoteDeviceOneData</title>
<polygon fill="white" stroke="black" points="1259.5,-779 972.5,-779 972.5,-743 1259.5,-743 1259.5,-779"/>
<text text-anchor="middle" x="1116" y="-757.3" font-family="Times New Roman,serif" font-size="14.00">Computer fully syncs data from remote device 1</text>
</g>
<!-- deviceTwoUploadsAfterBeingOfflineForADay -->
<g id="node19" class="node"><title>deviceTwoUploadsAfterBeingOfflineForADay</title>
<polygon fill="white" stroke="black" points="1316,-706 916,-706 916,-670 1316,-670 1316,-706"/>
<text text-anchor="middle" x="1116" y="-684.3" font-family="Times New Roman,serif" font-size="14.00">Remote device 2 uploads after losing internet for 2 days (or minutes)</text>
</g>
<!-- computerSyncsAllRemoteDeviceOneData&#45;&gt;deviceTwoUploadsAfterBeingOfflineForADay -->
<g id="edge19" class="edge"><title>computerSyncsAllRemoteDeviceOneData&#45;&gt;deviceTwoUploadsAfterBeingOfflineForADay</title>
<path fill="none" stroke="black" d="M1116,-742.813C1116,-734.789 1116,-725.047 1116,-716.069"/>
<polygon fill="black" stroke="black" points="1119.5,-716.029 1116,-706.029 1112.5,-716.029 1119.5,-716.029"/>
</g>
<!-- computerNeverAsksForDeviceTwosDataFromYesterday -->
<g id="node20" class="node"><title>computerNeverAsksForDeviceTwosDataFromYesterday</title>
<polygon fill="white" stroke="black" points="1316.5,-633 915.5,-633 915.5,-597 1316.5,-597 1316.5,-633"/>
<text text-anchor="middle" x="1116" y="-611.3" font-family="Times New Roman,serif" font-size="14.00">Computer never asks for device 2 data older than latest device 1 data</text>
</g>
<!-- deviceTwoUploadsAfterBeingOfflineForADay&#45;&gt;computerNeverAsksForDeviceTwosDataFromYesterday -->
<g id="edge20" class="edge"><title>deviceTwoUploadsAfterBeingOfflineForADay&#45;&gt;computerNeverAsksForDeviceTwosDataFromYesterday</title>
<path fill="none" stroke="black" d="M1116,-669.813C1116,-661.789 1116,-652.047 1116,-643.069"/>
<polygon fill="black" stroke="black" points="1119.5,-643.029 1116,-633.029 1112.5,-643.029 1119.5,-643.029"/>
</g>
<!-- comment1 -->
<g id="node21" class="node"><title>comment1</title>
<polygon fill="white" stroke="black" points="1744.5,-372 1435.5,-372 1435.5,-336 1744.5,-336 1744.5,-372"/>
<text text-anchor="middle" x="1590" y="-350.3" font-family="Times New Roman,serif" font-size="14.00">There is a version of this problem where data is lost.</text>
</g>
<!-- comment2 -->
<g id="node22" class="node"><title>comment2</title>
<polygon fill="white" stroke="black" points="1838.5,-285 1341.5,-285 1341.5,-249 1838.5,-249 1838.5,-285"/>
<text text-anchor="middle" x="1590" y="-263.3" font-family="Times New Roman,serif" font-size="14.00">However we can avoid it by fully syncing and signing out PCs before moving devices.</text>
</g>
<!-- comment1&#45;&gt;comment2 -->
<g id="edge21" class="edge"><title>comment1&#45;&gt;comment2</title>
<path fill="none" stroke="black" d="M1590,-335.799C1590,-324.163 1590,-308.548 1590,-295.237"/>
<polygon fill="black" stroke="black" points="1593.5,-295.175 1590,-285.175 1586.5,-295.175 1593.5,-295.175"/>
</g>
<!-- computerADownloadsFromServer -->
<g id="node23" class="node"><title>computerADownloadsFromServer</title>
<polygon fill="white" stroke="black" points="1695,-779 1485,-779 1485,-743 1695,-743 1695,-779"/>
<text text-anchor="middle" x="1590" y="-757.3" font-family="Times New Roman,serif" font-size="14.00">computerADownloadsFromServer</text>
</g>
<!-- ghostComputerBUploadsOldData -->
<g id="node24" class="node"><title>ghostComputerBUploadsOldData</title>
<polygon fill="white" stroke="black" points="1693,-706 1487,-706 1487,-670 1693,-670 1693,-706"/>
<text text-anchor="middle" x="1590" y="-684.3" font-family="Times New Roman,serif" font-size="14.00">ghostComputerBUploadsOldData</text>
</g>
<!-- computerADownloadsFromServer&#45;&gt;ghostComputerBUploadsOldData -->
<g id="edge22" class="edge"><title>computerADownloadsFromServer&#45;&gt;ghostComputerBUploadsOldData</title>
<path fill="none" stroke="black" d="M1590,-742.813C1590,-734.789 1590,-725.047 1590,-716.069"/>
<polygon fill="black" stroke="black" points="1593.5,-716.029 1590,-706.029 1586.5,-716.029 1593.5,-716.029"/>
</g>
<!-- computerANeverAsksForOldData -->
<g id="node25" class="node"><title>computerANeverAsksForOldData</title>
<polygon fill="white" stroke="black" points="1694,-633 1486,-633 1486,-597 1694,-597 1694,-633"/>
<text text-anchor="middle" x="1590" y="-611.3" font-family="Times New Roman,serif" font-size="14.00">computerANeverAsksForOldData</text>
</g>
<!-- ghostComputerBUploadsOldData&#45;&gt;computerANeverAsksForOldData -->
<g id="edge23" class="edge"><title>ghostComputerBUploadsOldData&#45;&gt;computerANeverAsksForOldData</title>
<path fill="none" stroke="black" d="M1590,-669.813C1590,-661.789 1590,-652.047 1590,-643.069"/>
<polygon fill="black" stroke="black" points="1593.5,-643.029 1590,-633.029 1586.5,-643.029 1593.5,-643.029"/>
</g>
<!-- gapInComputerAHistory -->
<g id="node26" class="node"><title>gapInComputerAHistory</title>
<polygon fill="white" stroke="black" points="1667.5,-546 1512.5,-546 1512.5,-510 1667.5,-510 1667.5,-546"/>
<text text-anchor="middle" x="1590" y="-524.3" font-family="Times New Roman,serif" font-size="14.00">gapInComputerAHistory</text>
</g>
<!-- computerANeverAsksForOldData&#45;&gt;gapInComputerAHistory -->
<g id="edge24" class="edge"><title>computerANeverAsksForOldData&#45;&gt;gapInComputerAHistory</title>
<path fill="none" stroke="black" d="M1590,-596.799C1590,-585.163 1590,-569.548 1590,-556.237"/>
<polygon fill="black" stroke="black" points="1593.5,-556.175 1590,-546.175 1586.5,-556.175 1593.5,-556.175"/>
</g>
<!-- edgeCaseWeDontCare -->
<g id="node27" class="node"><title>edgeCaseWeDontCare</title>
<polygon fill="white" stroke="black" points="1662,-459 1518,-459 1518,-423 1662,-423 1662,-459"/>
<text text-anchor="middle" x="1590" y="-437.3" font-family="Times New Roman,serif" font-size="14.00">edgeCaseWeDontCare</text>
</g>
<!-- gapInComputerAHistory&#45;&gt;edgeCaseWeDontCare -->
<g id="edge25" class="edge"><title>gapInComputerAHistory&#45;&gt;edgeCaseWeDontCare</title>
<path fill="none" stroke="black" d="M1590,-509.799C1590,-498.163 1590,-482.548 1590,-469.237"/>
<polygon fill="black" stroke="black" points="1593.5,-469.175 1590,-459.175 1586.5,-469.175 1593.5,-469.175"/>
</g>
<!-- edgeCaseWeDontCare&#45;&gt;comment1 -->
<g id="edge26" class="edge"><title>edgeCaseWeDontCare&#45;&gt;comment1</title>
<path fill="none" stroke="black" d="M1590,-422.799C1590,-411.163 1590,-395.548 1590,-382.237"/>
<polygon fill="black" stroke="black" points="1593.5,-382.175 1590,-372.175 1586.5,-382.175 1593.5,-382.175"/>
</g>
</g>
</svg>
