<?xml version="1.0" encoding="UTF-8" standalone="no"?>
<!DOCTYPE svg PUBLIC "-//W3C//DTD SVG 1.1//EN"
 "http://www.w3.org/Graphics/SVG/1.1/DTD/svg11.dtd">
<!-- Generated by graphviz version 2.38.0 (20140413.2041)
 -->
<!-- Title: G Pages: 1 -->
<svg width="875pt" height="716pt"
 viewBox="0.00 0.00 875.00 716.00" xmlns="http://www.w3.org/2000/svg" xmlns:xlink="http://www.w3.org/1999/xlink">
<g id="graph0" class="graph" transform="scale(1 1) rotate(0) translate(4 712)">
<title>G</title>
<polygon fill="white" stroke="none" points="-4,4 -4,-712 871,-712 871,4 -4,4"/>
<g id="clust2" class="cluster"><title>cluster1</title>
<polygon fill="none" stroke="black" points="533,-502 533,-700 859,-700 859,-502 533,-502"/>
</g>
<g id="clust1" class="cluster"><title>cluster0</title>
<polygon fill="lightgray" stroke="lightgray" points="8,-8 8,-700 525,-700 525,-8 8,-8"/>
</g>
<!-- start -->
<g id="node1" class="node"><title>start</title>
<path fill="orange" stroke="black" d="M439.5,-692C439.5,-692 388.5,-692 388.5,-692 382.5,-692 376.5,-686 376.5,-680 376.5,-680 376.5,-668 376.5,-668 376.5,-662 382.5,-656 388.5,-656 388.5,-656 439.5,-656 439.5,-656 445.5,-656 451.5,-662 451.5,-668 451.5,-668 451.5,-680 451.5,-680 451.5,-686 445.5,-692 439.5,-692"/>
<text text-anchor="middle" x="414" y="-670.3" font-family="Times New Roman,serif" font-size="14.00">Start Sync</text>
</g>
<!-- reqFive -->
<g id="node4" class="node"><title>reqFive</title>
<polygon fill="white" stroke="black" points="507,-619 321,-619 321,-583 507,-583 507,-619"/>
<text text-anchor="middle" x="414" y="-597.3" font-family="Times New Roman,serif" font-size="14.00">Request 5 days from $lastReq</text>
</g>
<!-- start&#45;&gt;reqFive -->
<g id="edge1" class="edge"><title>start&#45;&gt;reqFive</title>
<path fill="none" stroke="black" d="M414,-655.813C414,-647.789 414,-638.047 414,-629.069"/>
<polygon fill="black" stroke="black" points="417.5,-629.029 414,-619.029 410.5,-629.029 417.5,-629.029"/>
</g>
<!-- end -->
<g id="node2" class="node"><title>end</title>
<path fill="orange" stroke="black" d="M95.5,-372C95.5,-372 48.5,-372 48.5,-372 42.5,-372 36.5,-366 36.5,-360 36.5,-360 36.5,-348 36.5,-348 36.5,-342 42.5,-336 48.5,-336 48.5,-336 95.5,-336 95.5,-336 101.5,-336 107.5,-342 107.5,-348 107.5,-348 107.5,-360 107.5,-360 107.5,-366 101.5,-372 95.5,-372"/>
<text text-anchor="middle" x="72" y="-350.3" font-family="Times New Roman,serif" font-size="14.00">End Sync</text>
</g>
<!-- abort -->
<g id="node3" class="node"><title>abort</title>
<path fill="red" stroke="black" d="M304,-52C304,-52 274,-52 274,-52 268,-52 262,-46 262,-40 262,-40 262,-28 262,-28 262,-22 268,-16 274,-16 274,-16 304,-16 304,-16 310,-16 316,-22 316,-28 316,-28 316,-40 316,-40 316,-46 310,-52 304,-52"/>
<text text-anchor="middle" x="289" y="-30.3" font-family="Times New Roman,serif" font-size="14.00">Abort</text>
</g>
<!-- anythingRecieved -->
<g id="node5" class="node"><title>anythingRecieved</title>
<polygon fill="white" stroke="black" points="355,-546 236.357,-528 355,-510 473.643,-528 355,-546"/>
<text text-anchor="middle" x="355" y="-524.3" font-family="Times New Roman,serif" font-size="14.00">Any items recieved?</text>
</g>
<!-- reqFive&#45;&gt;anythingRecieved -->
<g id="edge2" class="edge"><title>reqFive&#45;&gt;anythingRecieved</title>
<path fill="none" stroke="black" d="M399.718,-582.813C392.044,-573.579 382.479,-562.068 374.167,-552.065"/>
<polygon fill="black" stroke="black" points="376.632,-549.555 367.548,-544.101 371.248,-554.029 376.632,-549.555"/>
</g>
<!-- anythingRecieved&#45;&gt;abort -->
<g id="edge5" class="edge"><title>anythingRecieved&#45;&gt;abort</title>
<path fill="none" stroke="black" d="M351.781,-510.221C342.779,-463.046 318,-331.382 318,-311.5 318,-311.5 318,-311.5 318,-106 318,-90.2499 311.808,-73.896 305.147,-60.8592"/>
<polygon fill="black" stroke="black" points="308.171,-59.095 300.295,-52.0086 302.033,-62.4599 308.171,-59.095"/>
<text text-anchor="middle" x="337" y="-263.3" font-family="Times New Roman,serif" font-size="14.00"> failed </text>
</g>
<!-- mergeAndSave -->
<g id="node7" class="node"><title>mergeAndSave</title>
<polygon fill="white" stroke="black" points="495.5,-459 364.5,-459 364.5,-423 495.5,-423 495.5,-459"/>
<text text-anchor="middle" x="430" y="-437.3" font-family="Times New Roman,serif" font-size="14.00">Merge and save data</text>
</g>
<!-- anythingRecieved&#45;&gt;mergeAndSave -->
<g id="edge3" class="edge"><title>anythingRecieved&#45;&gt;mergeAndSave</title>
<path fill="none" stroke="black" d="M368.408,-511.804C379.429,-499.314 395.264,-481.367 408.118,-466.8"/>
<polygon fill="black" stroke="black" points="410.911,-468.924 414.903,-459.11 405.662,-464.293 410.911,-468.924"/>
<text text-anchor="middle" x="410.5" y="-480.8" font-family="Times New Roman,serif" font-size="14.00"> yes </text>
</g>
<!-- anyDaysLocallyModified -->
<g id="node8" class="node"><title>anyDaysLocallyModified</title>
<polygon fill="white" stroke="black" points="171,-459 15.8247,-441 171,-423 326.175,-441 171,-459"/>
<text text-anchor="middle" x="171" y="-437.3" font-family="Times New Roman,serif" font-size="14.00">Any days locally modified?</text>
</g>
<!-- anythingRecieved&#45;&gt;anyDaysLocallyModified -->
<g id="edge4" class="edge"><title>anythingRecieved&#45;&gt;anyDaysLocallyModified</title>
<path fill="none" stroke="black" d="M327.054,-514.09C295.81,-499.657 244.999,-476.184 209.887,-459.964"/>
<polygon fill="black" stroke="black" points="210.975,-456.611 200.429,-455.595 208.039,-462.966 210.975,-456.611"/>
<text text-anchor="middle" x="286" y="-480.8" font-family="Times New Roman,serif" font-size="14.00"> no </text>
</g>
<!-- setLastToLastItem -->
<g id="node6" class="node"><title>setLastToLastItem</title>
<polygon fill="white" stroke="black" points="516.5,-372 337.5,-372 337.5,-336 516.5,-336 516.5,-372"/>
<text text-anchor="middle" x="427" y="-350.3" font-family="Times New Roman,serif" font-size="14.00">Set $lastReq to last item date</text>
</g>
<!-- setLastToLastItem&#45;&gt;reqFive -->
<g id="edge7" class="edge"><title>setLastToLastItem&#45;&gt;reqFive</title>
<path fill="none" stroke="black" d="M456.491,-372.034C473.846,-383.868 494.248,-401.377 504,-423 510.578,-437.585 505.89,-443.112 504,-459 499.3,-498.499 504.525,-512.55 483,-546 475.325,-557.926 464.089,-568.328 452.903,-576.734"/>
<polygon fill="black" stroke="black" points="450.541,-574.119 444.418,-582.765 454.597,-579.824 450.541,-574.119"/>
</g>
<!-- mergeAndSave&#45;&gt;setLastToLastItem -->
<g id="edge6" class="edge"><title>mergeAndSave&#45;&gt;setLastToLastItem</title>
<path fill="none" stroke="black" d="M429.393,-422.799C428.982,-411.163 428.431,-395.548 427.961,-382.237"/>
<polygon fill="black" stroke="black" points="431.457,-382.046 427.606,-372.175 424.461,-382.293 431.457,-382.046"/>
</g>
<!-- anyDaysLocallyModified&#45;&gt;end -->
<g id="edge14" class="edge"><title>anyDaysLocallyModified&#45;&gt;end</title>
<path fill="none" stroke="black" d="M153.301,-424.804C138.484,-412.082 117.075,-393.701 99.9457,-378.994"/>
<polygon fill="black" stroke="black" points="101.795,-375.969 91.9281,-372.11 97.2352,-381.28 101.795,-375.969"/>
<text text-anchor="middle" x="135.5" y="-393.8" font-family="Times New Roman,serif" font-size="14.00">no</text>
</g>
<!-- unmarkFive -->
<g id="node9" class="node"><title>unmarkFive</title>
<polygon fill="white" stroke="black" points="298.5,-372 125.5,-372 125.5,-336 298.5,-336 298.5,-372"/>
<text text-anchor="middle" x="212" y="-350.3" font-family="Times New Roman,serif" font-size="14.00">Unflag 5 as locally modified</text>
</g>
<!-- anyDaysLocallyModified&#45;&gt;unmarkFive -->
<g id="edge8" class="edge"><title>anyDaysLocallyModified&#45;&gt;unmarkFive</title>
<path fill="none" stroke="black" d="M178.905,-423.611C184.691,-411.617 192.661,-395.093 199.33,-381.266"/>
<polygon fill="black" stroke="black" points="202.505,-382.741 203.697,-372.214 196.2,-379.7 202.505,-382.741"/>
<text text-anchor="middle" x="207.5" y="-393.8" font-family="Times New Roman,serif" font-size="14.00"> yes </text>
</g>
<!-- uploadFive -->
<g id="node10" class="node"><title>uploadFive</title>
<polygon fill="white" stroke="black" points="252,-285 136,-285 136,-249 252,-249 252,-285"/>
<text text-anchor="middle" x="194" y="-263.3" font-family="Times New Roman,serif" font-size="14.00">Upload those five</text>
</g>
<!-- unmarkFive&#45;&gt;uploadFive -->
<g id="edge9" class="edge"><title>unmarkFive&#45;&gt;uploadFive</title>
<path fill="none" stroke="black" d="M208.357,-335.799C205.893,-324.163 202.587,-308.548 199.768,-295.237"/>
<polygon fill="black" stroke="black" points="203.133,-294.233 197.637,-285.175 196.285,-295.684 203.133,-294.233"/>
</g>
<!-- success -->
<g id="node11" class="node"><title>success</title>
<polygon fill="white" stroke="black" points="184,-212 69.2106,-194 184,-176 298.789,-194 184,-212"/>
<text text-anchor="middle" x="184" y="-190.3" font-family="Times New Roman,serif" font-size="14.00">Successful upload?</text>
</g>
<!-- uploadFive&#45;&gt;success -->
<g id="edge10" class="edge"><title>uploadFive&#45;&gt;success</title>
<path fill="none" stroke="black" d="M191.579,-248.813C190.449,-240.789 189.077,-231.047 187.813,-222.069"/>
<polygon fill="black" stroke="black" points="191.259,-221.443 186.398,-212.029 184.327,-222.419 191.259,-221.443"/>
</g>
<!-- success&#45;&gt;anyDaysLocallyModified -->
<g id="edge11" class="edge"><title>success&#45;&gt;anyDaysLocallyModified</title>
<path fill="none" stroke="black" d="M159.037,-208.269C122.054,-229.529 54.1589,-275.105 27,-336 20.4829,-350.613 18.4359,-358.485 27,-372 44.5499,-399.696 76.7429,-416.324 106.246,-426.196"/>
<polygon fill="black" stroke="black" points="105.534,-429.64 116.123,-429.291 107.627,-422.961 105.534,-429.64"/>
<text text-anchor="middle" x="59.5" y="-306.8" font-family="Times New Roman,serif" font-size="14.00"> yes </text>
</g>
<!-- reflagFive -->
<g id="node12" class="node"><title>reflagFive</title>
<polygon fill="white" stroke="black" points="292.5,-125 113.5,-125 113.5,-89 292.5,-89 292.5,-125"/>
<text text-anchor="middle" x="203" y="-103.3" font-family="Times New Roman,serif" font-size="14.00">Reflag those five as modified</text>
</g>
<!-- success&#45;&gt;reflagFive -->
<g id="edge12" class="edge"><title>success&#45;&gt;reflagFive</title>
<path fill="none" stroke="black" d="M187.754,-176.207C190.391,-164.409 193.974,-148.378 197.004,-134.822"/>
<polygon fill="black" stroke="black" points="200.423,-135.572 199.189,-125.049 193.592,-134.045 200.423,-135.572"/>
<text text-anchor="middle" x="206" y="-146.8" font-family="Times New Roman,serif" font-size="14.00"> no </text>
</g>
<!-- reflagFive&#45;&gt;abort -->
<g id="edge13" class="edge"><title>reflagFive&#45;&gt;abort</title>
<path fill="none" stroke="black" d="M223.818,-88.8129C234.804,-79.743 248.451,-68.4769 260.414,-58.6004"/>
<polygon fill="black" stroke="black" points="262.89,-61.0944 268.374,-52.0288 258.434,-55.6963 262.89,-61.0944"/>
</g>
<!-- dataFromDevice -->
<g id="node13" class="node"><title>dataFromDevice</title>
<polygon fill="white" stroke="black" points="851.158,-692 604.336,-692 540.842,-656 787.664,-656 851.158,-692"/>
<text text-anchor="middle" x="696" y="-670.3" font-family="Times New Roman,serif" font-size="14.00">Data recieved from device</text>
</g>
<!-- saveToDb -->
<g id="node14" class="node"><title>saveToDb</title>
<polygon fill="white" stroke="black" points="749.5,-619 642.5,-619 642.5,-583 749.5,-583 749.5,-619"/>
<text text-anchor="middle" x="696" y="-597.3" font-family="Times New Roman,serif" font-size="14.00">Save to local db</text>
</g>
<!-- dataFromDevice&#45;&gt;saveToDb -->
<g id="edge15" class="edge"><title>dataFromDevice&#45;&gt;saveToDb</title>
<path fill="none" stroke="black" d="M696,-655.813C696,-647.789 696,-638.047 696,-629.069"/>
<polygon fill="black" stroke="black" points="699.5,-629.029 696,-619.029 692.5,-629.029 699.5,-629.029"/>
</g>
<!-- markDayAsLocallyModified -->
<g id="node15" class="node"><title>markDayAsLocallyModified</title>
<polygon fill="white" stroke="black" points="782.5,-546 609.5,-546 609.5,-510 782.5,-510 782.5,-546"/>
<text text-anchor="middle" x="696" y="-524.3" font-family="Times New Roman,serif" font-size="14.00">Flag day as locally modified</text>
</g>
<!-- saveToDb&#45;&gt;markDayAsLocallyModified -->
<g id="edge16" class="edge"><title>saveToDb&#45;&gt;markDayAsLocallyModified</title>
<path fill="none" stroke="black" d="M696,-582.813C696,-574.789 696,-565.047 696,-556.069"/>
<polygon fill="black" stroke="black" points="699.5,-556.029 696,-546.029 692.5,-556.029 699.5,-556.029"/>
</g>
</g>
</svg>
